<!-- Grant Thornton's mark alone, cut from logo.svg. -->
<svg viewBox="0.15 0.88 160.36 160.35" fill="none" xmlns="http://www.w3.org/2000/svg">
<path
    d="M80.33 50.11C92.95 54.12 102.98 63.53 109.74 76.89C110.65 78.68 111.11 81.37 110.62 82.95C110.85 82.32 111.07 81.7 111.27 81.06C127.47 30.12 70.08 -4.01998 40.95 11.25C40.4 11.56 39.84 11.86 39.28 12.19C1.79 34.53 -10.83 82.65 10.52 120.45C-4.77 91.32 29.38 33.91 80.32 50.11H80.33Z"
    fill="url(#paint0_linear_1349_115)"></path>
<path
    d="M49.39 81.0599C53.4 68.4399 62.81 58.3999 76.17 51.6499C77.96 50.7499 80.65 50.2799 82.23 50.7699C81.61 50.5399 80.98 50.3199 80.34 50.1199C29.4 33.9199 -4.75 91.3099 10.53 120.44C10.84 121 11.14 121.55 11.47 122.11C33.81 159.6 81.93 172.22 119.73 150.87C90.6 166.16 33.19 132.01 49.39 81.0699V81.0599Z"
    fill="url(#paint1_linear_1349_115)"></path>
<path
    d="M80.34 112C67.72 107.99 57.69 98.5799 50.93 85.2199C50.03 83.4299 49.56 80.7399 50.05 79.1599C49.82 79.7799 49.6 80.4099 49.4 81.0499C33.2 131.99 90.59 166.14 119.72 150.86C120.27 150.55 120.84 150.25 121.39 149.92C158.88 127.58 171.5 79.4699 150.15 41.6599C165.44 70.7899 131.29 128.2 80.35 111.99L80.34 112Z"
    fill="url(#paint2_linear_1349_115)"></path>
<path
    d="M111.28 81.06C107.27 93.68 97.86 103.72 84.5 110.47C82.71 111.38 80.02 111.84 78.44 111.35C79.06 111.58 79.69 111.8 80.33 112C131.27 128.2 165.41 70.8099 150.14 41.68C149.83 41.12 149.53 40.56 149.2 40.01C126.86 2.51995 78.74 -10.1 40.94 11.25C70.07 -4.04004 127.48 30.11 111.28 81.05V81.06Z"
    fill="url(#paint3_linear_1349_115)"></path>
<defs>
    <linearGradient id="paint0_linear_1349_115" x1="113.88" y1="58.36" x2="-1.06" y2="66.4"
      gradientUnits="userSpaceOnUse">
      <stop stop-color="#522E91"></stop>
      <stop offset="0.12" stop-color="#522E91"></stop>
      <stop offset="0.31" stop-color="#6B4DA1"></stop>
      <stop offset="0.55" stop-color="#8870B3"></stop>
      <stop offset="0.74" stop-color="#9986BE"></stop>
      <stop offset="0.87" stop-color="#A08EC3"></stop>
      <stop offset="1" stop-color="#917DBA"></stop>
    </linearGradient>
    <linearGradient id="paint1_linear_1349_115" x1="57.64" y1="47.5099" x2="65.68" y2="162.45"
      gradientUnits="userSpaceOnUse">
      <stop stop-color="#522E91"></stop>
      <stop offset="0.12" stop-color="#522E91"></stop>
      <stop offset="0.31" stop-color="#6B4DA1"></stop>
      <stop offset="0.55" stop-color="#8870B3"></stop>
      <stop offset="0.74" stop-color="#9986BE"></stop>
      <stop offset="0.87" stop-color="#A08EC3"></stop>
      <stop offset="1" stop-color="#917DBA"></stop>
    </linearGradient>
    <linearGradient id="paint2_linear_1349_115" x1="46.79" y1="103.76" x2="161.73" y2="95.7199"
      gradientUnits="userSpaceOnUse">
      <stop stop-color="#522E91"></stop>
      <stop offset="0.12" stop-color="#522E91"></stop>
      <stop offset="0.31" stop-color="#6B4DA1"></stop>
      <stop offset="0.55" stop-color="#8870B3"></stop>
      <stop offset="0.74" stop-color="#9986BE"></stop>
      <stop offset="0.87" stop-color="#A08EC3"></stop>
      <stop offset="1" stop-color="#917DBA"></stop>
    </linearGradient>
    <linearGradient id="paint3_linear_1349_115" x1="103.04" y1="114.6" x2="95" y2="-0.340037"
      gradientUnits="userSpaceOnUse">
      <stop stop-color="#522E91"></stop>
      <stop offset="0.12" stop-color="#522E91"></stop>
      <stop offset="0.31" stop-color="#6B4DA1"></stop>
      <stop offset="0.55" stop-color="#8870B3"></stop>
      <stop offset="0.74" stop-color="#9986BE"></stop>
      <stop offset="0.87" stop-color="#A08EC3"></stop>
      <stop offset="1" stop-color="#917DBA"></stop>
    </linearGradient>
  </defs>
</svg>
